<svg width="18" height="20" viewBox="0 0 18 20" fill="none" xmlns="http://www.w3.org/2000/svg">
<path d="M15 20.0002H3C2.20459 19.9994 1.44199 19.683 0.879557 19.1206C0.31712 18.5582 0.000794269 17.7956 5.43731e-08 17.0002V8.25017C-8.13068e-05 7.8228 0.0911466 7.40035 0.267575 7.01111C0.444004 6.62186 0.701561 6.2748 1.023 5.99317L7.024 0.743166C7.57207 0.266756 8.27381 0.00439453 9 0.00439453C9.72619 0.00439453 10.4279 0.266756 10.976 0.743166L16.976 5.99317C17.2976 6.27471 17.5554 6.62173 17.732 7.01098C17.9086 7.40023 18 7.82273 18 8.25017V17.0002C17.9992 17.7956 17.6829 18.5582 17.1204 19.1206C16.558 19.683 15.7954 19.9994 15 20.0002Z" fill="#CECECE"/>
<path d="M13 20H5V13C5 12.2044 5.31607 11.4413 5.87868 10.8787C6.44129 10.3161 7.20435 10 8 10H10C10.7956 10 11.5587 10.3161 12.1213 10.8787C12.6839 11.4413 13 12.2044 13 13V20Z" fill="#656565"/>
</svg>
