<svg width="18" height="20" viewBox="0 0 18 20" fill="none" xmlns="http://www.w3.org/2000/svg">
<path d="M15 19.9997H3C2.20459 19.9989 1.44199 19.6826 0.879557 19.1201C0.31712 18.5577 0.000794269 17.7951 5.43731e-08 16.9997V8.24968C-8.13068e-05 7.82231 0.0911466 7.39986 0.267575 7.01062C0.444004 6.62137 0.701561 6.27431 1.023 5.99268L7.024 0.742678C7.57207 0.266267 8.27381 0.00390625 9 0.00390625C9.72619 0.00390625 10.4279 0.266267 10.976 0.742678L16.976 5.99268C17.2976 6.27422 17.5554 6.62124 17.732 7.01049C17.9086 7.39974 18 7.82224 18 8.24968V16.9997C17.9992 17.7951 17.6829 18.5577 17.1204 19.1201C16.558 19.6826 15.7954 19.9989 15 19.9997Z" fill="#B2B1FF"/>
<path d="M13 20H5V13C5 12.2044 5.31607 11.4413 5.87868 10.8787C6.44129 10.3161 7.20435 10 8 10H10C10.7956 10 11.5587 10.3161 12.1213 10.8787C12.6839 11.4413 13 12.2044 13 13V20Z" fill="#6563FF"/>
</svg>
