<svg xmlns="http://www.w3.org/2000/svg" viewBox="0 0 52 52" id="mobile-update"><path fill="#ffaf93" d="M31.8 33C32.9 38.4 20 43.3 20 43.3L9.3 37.7l-1.7-4.2c-.4-.8-.5-1.7-.5-2.6V22c0-.5.4-1 .9-1 1.3 0 2.4.5 3.3 1.3.8.8 1.3 2 1.3 3.3V28s7.4.9 7.6 8.5c.1-1.1-.1-14.4 6.5-11.2 6 3 4.3 3.9 5.1 7.7z"></path><path fill="#ee8778" d="M31.8 33c-.8-3.8 1-4.7-5.1-7.6-5-2.4-6.1 4.7-6.3 8.7v3.4h9.5c1.3-1.4 2.2-3 1.9-4.5z"></path><path fill="#5b5e8b" d="M29.6 36.6H11.5c-1.2 0-2.1-1-2.1-2.1V6c0-1.2 1-2.1 2.1-2.1h18.1c1.2 0 2.1 1 2.1 2.1v28.5c.1 1.1-.9 2.1-2.1 2.1z"></path><path fill="#312e4b" d="M13.9 36.6h-2.5c-1.2 0-2.1-1-2.1-2.1V6c0-1.2 1-2.1 2.1-2.1h2.5c-1.2 0-2.1 1-2.1 2.1v28.5c0 1.1 1 2.1 2.1 2.1z"></path><path fill="#deddff" d="M29.8 6.7V32c0 .5-.4.9-.9.9H12.2c-.5 0-.9-.4-.9-.9V6.7c0-.5.4-.9.9-.9h16.6c.6-.1 1 .4 1 .9z"></path><path fill="#312e4b" d="M24.1 34.9c0 .4-.3.7-.7.7h-5.6c-.4 0-.7-.3-.7-.7 0-.4.3-.7.7-.7h5.6c.4 0 .7.4.7.7z"></path><path fill="#ffaf93" d="M20.2 36.6c-.2-7.7-7.6-8.6-7.6-8.6v-2.4c0-2.5-2.1-4.6-4.6-4.6-.5 0-.9.4-.9.9v8.9c0 .9.2 1.8.5 2.6l1.3 3.2h11.3z"></path><path fill="#ee8778" d="m10.7 37.7-1.8-1-1.3-3.2c-.3-.8-.5-1.7-.5-2.6V22c0-.5.4-.9.9-.9.3 0 .6 0 1 .1-.3.1-.5.5-.5.8v8.9c0 .9.2 1.8.5 2.6l1.7 4.2z"></path><path fill="#e83d62" d="m27.9 15.5-1.8 1.7c-.3.3-.9.2-1-.3l-.6-2.4c-.1-.5.3-.9.8-.8l.5.2c-.3-2.7-2.6-4.8-5.3-4.8-1.1 0-2.2.3-3.1 1-.3.2-.6.1-.8-.1-.2-.3-.1-.6.1-.8 1.2-.8 2.5-1.2 3.9-1.2 3.5 0 6.4 2.8 6.5 6.3l.6.2c.4.1.6.7.2 1zm-3.3 3.4c.2.3.1.6-.1.8-1.2.8-2.5 1.3-3.9 1.3-3.6 0-6.5-2.9-6.5-6.4l-.6-.2c-.5-.1-.6-.7-.2-1.1l1.8-1.6c.4-.3.9-.1 1 .3l.5 2.4c.1.5-.3.9-.8.7l-.6-.1c.2 2.7 2.5 4.9 5.3 4.9 1.2 0 2.3-.4 3.2-1.1.3-.2.7-.2.9.1z"></path><path fill="#46cc6b" d="M21.1 45.7 18.6 50l-13-7.1-2.2-1.2L6.1 37c.1-.2.2-.3.3-.4.6-.6 1.5-.7 2.3-.3l2.1 1.2 9.6 5.6c.9.6 1.2 1.7.7 2.6z"></path><path fill="#179c5f" d="M10.8 37.5c-.9-.5-2.1-.2-2.6.7l-2.6 4.7-2.2-1.2L6.1 37c.1-.2.2-.3.3-.4.6-.6 1.5-.7 2.3-.3l2.1 1.2z"></path><path fill="#c6c6f7" d="M26.4 27.4H14.7c-1 0-1.8-.8-1.8-1.8s.8-1.8 1.8-1.8h11.7c1 0 1.8.8 1.8 1.8s-.8 1.8-1.8 1.8z"></path><path fill="#65b9ff" d="M21.7 27.4h-7c-1 0-1.8-.8-1.8-1.8s.8-1.8 1.8-1.8h7c1 0 1.8.8 1.8 1.8-.1 1-.9 1.8-1.8 1.8zM48.6 9.3c-.1 2.3-1.3 4.3-3 5.5-1.1.8-2.5 1.2-4 1.2-.1 0-.2 0-.3.1-1.2 1-2.6 1.1-3.2 1.1-.2 0-.2-.2-.1-.3.4-.4.6-.9.6-1.2 0-.2-.1-.4-.2-.5-2.4-1.3-4-3.9-3.7-6.8.3-3.9 3.8-6.8 7.7-6.4 1.9.2 3.6 1.2 4.7 2.7 1 1.3 1.6 2.9 1.5 4.6z"></path><path fill="#3e7fff" d="M36 8.2c-.3 2.9 1.3 5.5 3.7 6.8.2.1.3.3.3.5-.1.4-.2.8-.6 1.2-.1.1 0 .3.1.3-.6.2-1.1.2-1.4.2-.2 0-.2-.2-.1-.3.4-.4.6-.9.6-1.2 0-.2-.1-.4-.2-.5-2.4-1.3-4-3.9-3.7-6.8C35 4.8 38 2.1 41.6 2c-3 .7-5.3 3.1-5.6 6.2z"></path><path fill="#deddff" d="M46.4 8.6c-.1 0-.2 0-.3-.1-1.2-1.2-2.8-1.9-4.5-1.9-1.7 0-3.3.7-4.5 1.9-.2.2-.5.2-.7 0-.2-.2-.2-.5 0-.7 1.4-1.4 3.2-2.1 5.2-2.1s3.8.8 5.2 2.1c.2.2.2.5 0 .7-.1.1-.2.1-.4.1z"></path><path fill="#deddff" d="M44.8 10.3c-.1 0-.2 0-.3-.1-.8-.8-1.8-1.2-2.9-1.2-1.1 0-2.1.4-2.9 1.2-.2.2-.5.2-.7 0-.2-.2-.2-.5 0-.7 1-1 2.2-1.5 3.6-1.5 1.3 0 2.6.5 3.6 1.5.2.2.2.5 0 .7-.1 0-.3.1-.4.1z"></path><path fill="#deddff" d="M43.2 11.9c-.1 0-.2 0-.3-.1-.7-.7-1.9-.7-2.6 0-.2.2-.5.2-.7 0-.2-.2-.2-.5 0-.7 1.1-1.1 2.8-1.1 3.9 0 .2.2.2.5 0 .7-.1 0-.2.1-.3.1z"></path></svg>